<?xml version="1.0" encoding="utf-8"?>
<!-- Generator: Adobe Illustrator 21.0.0, SVG Export Plug-In . SVG Version: 6.00 Build 0)  -->
<svg version="1.1" id="图层_1" xmlns="http://www.w3.org/2000/svg" xmlns:xlink="http://www.w3.org/1999/xlink" x="0px" y="0px"
	 viewBox="0 0 160 160" style="enable-background:new 0 0 160 160;" xml:space="preserve">
<style type="text/css">
	.st0{fill:#B2B2B2;}
</style>
<path class="st0" d="M62.2,67.1c2.3,0,4.2-2.8,4.2-6.3c0-3.5-1.9-6.3-4.2-6.3c-2.3,0-4.2,2.8-4.2,6.3C58,64.3,59.9,67.1,62.2,67.1
	C62.2,67.1,62.2,67.1,62.2,67.1z M56,83.6c0,2.1,1.6,21.9,23.7,21.9c19.9,0,24.3-20,24.3-21.9c0-1.9-11.5-4.2-24.2-4.2
	C68.6,79.4,56,81.5,56,83.6L56,83.6z M95.7,67.1c2.3,0,4.2-2.8,4.2-6.3c0-3.5-1.9-6.3-4.2-6.3c-2.3,0-4.2,2.8-4.2,6.3
	C91.5,64.3,93.4,67.1,95.7,67.1C95.7,67.1,95.7,67.1,95.7,67.1z"/>
</svg>
